<?xml version="1.0" standalone="no"?>
<!DOCTYPE svg PUBLIC "-//W3C//DTD SVG 1.1//EN" "http://www.w3.org/Graphics/SVG/1.1/DTD/svg11.dtd" >
<svg xmlns="http://www.w3.org/2000/svg">
<metadata></metadata>
<defs>
<font id="credit_valleybold" horiz-adv-x="1255" >
<font-face units-per-em="2048" ascent="1638" descent="-410" />
<missing-glyph horiz-adv-x="432" />
<glyph horiz-adv-x="0" />
<glyph unicode="&#xd;" horiz-adv-x="1024" />
<glyph unicode=" "  horiz-adv-x="432" />
<glyph unicode="&#x09;" horiz-adv-x="432" />
<glyph unicode="&#xa0;" horiz-adv-x="432" />
<glyph unicode="!" horiz-adv-x="479" d="M94 1141q0 45 5 84t20.5 67.5t45.5 44t81 15.5q61 0 100 -34t39 -93q0 -106 -7 -212t-20 -222q-12 -117 -30.5 -251t-40.5 -257h-111q-18 100 -33.5 223t-27.5 233q-10 111 -15.5 207t-5.5 195zM102 68q0 59 36 107t95 48t95.5 -48t36.5 -107t-36.5 -107.5t-95.5 -48.5 t-95 48t-36 108z" />
<glyph unicode="&#x22;" horiz-adv-x="565" d="M88 1341q0 59 26.5 107.5t71.5 48.5q39 0 62.5 -35t32.5 -82q8 47 33.5 82t62.5 35q45 0 71.5 -48.5t26.5 -107.5q0 -27 -6 -74.5t-14.5 -102t-14.5 -106.5t-6 -87h-117q0 76 -30 284q-2 10 -4 18.5t-2 16.5q-4 -35 -10.5 -77t-12.5 -86t-10 -85t-4 -71h-117 q0 76 -31 284q-4 25 -6 46.5t-2 39.5z" />
<glyph unicode="#" horiz-adv-x="849" d="M51 463l43 155h148l32 115h-149l43 156h147l70 250h129l-70 -250h78l70 250h127l-70 -250h148l-43 -156h-146l-30 -115h145l-43 -155h-145l-62 -232h-127l62 232h-78l-62 -232h-129l62 232h-150zM373 618h76l32 115h-78z" />
<glyph unicode="$" horiz-adv-x="911" d="M125 1022q0 338 456 338h258l-24 -313h-94q-18 174 -43 174h-97q-221 0 -223 -205v-6q0 -104 59.5 -168t176.5 -101q166 -53 247.5 -153.5t81.5 -237.5v-4q0 -362 -466 -362q-139 0 -314 125l31 98q145 -84 283 -84q231 10 231 211q0 92 -58.5 157.5t-177.5 112.5 q-166 68 -246.5 175.5t-80.5 242.5zM483 -111v1565h131v-1565h-131z" />
<glyph unicode="%" horiz-adv-x="1181" d="M86 1067v43q0 104 76 157.5t205 53.5t204.5 -53.5t75.5 -157.5v-43q0 -29 -6 -53l240 307h194l-457 -578q78 47 197 48q129 0 205 -54.5t76 -158.5v-41q0 -104 -78 -158.5t-203 -54.5q-129 0 -204.5 54t-75.5 159v41q0 31 10 71l-256 -325h-187l447 573q-72 -43 -182 -43 q-129 0 -205 54.5t-76 158.5zM264 1087q0 -49 27.5 -81.5t75.5 -32.5q47 0 74.5 32.5t27.5 81.5t-27.5 83t-74.5 34t-75 -33.5t-28 -83.5zM713 557q0 -49 27.5 -83t74.5 -34t75 34t28 83t-28 83t-75 34t-74.5 -34t-27.5 -83z" />
<glyph unicode="&#x26;" horiz-adv-x="1083" d="M78 358q0 231 219 340q-66 43 -103.5 119t-37.5 182v15q4 190 101 277t269 89h11q104 0 179 -36.5t140 -124.5l-65 -109q-70 162 -199 162h-6q-92 0 -145.5 -65.5t-59.5 -200.5v-29q0 -217 158 -217h174q96 0 149 141l31 -6v-135h111v-98q-111 -23 -111 -27v-316 q0 -201 121 -243v-92q-119 18 -199 59q-66 -41 -139.5 -56.5t-165.5 -17.5h-8q-213 0 -318.5 90.5t-105.5 298.5zM317 356q0 -141 63.5 -211.5t199.5 -70.5h8q78 0 141 57q-33 57 -33 143v367h-145q-233 0 -234 -285z" />
<glyph unicode="'" horiz-adv-x="409" d="M76 1343q0 59 35.5 107.5t95.5 48.5q61 0 97 -50t36 -126q0 -39 -14.5 -83t-39 -86t-56 -77t-66.5 -57l-80 63q80 51 88 97q-96 41 -96 163z" />
<glyph unicode="(" horiz-adv-x="618" d="M88 162v1020q0 80 34 143.5t96.5 106.5t149.5 66.5t193 23.5v-113q-59 -10 -110.5 -35.5t-90 -64.5t-61.5 -87t-23 -104v-893q0 -53 23 -102t61.5 -88t90 -65.5t110.5 -35.5v-112q-109 0 -195.5 22.5t-148 66.5t-95.5 107.5t-34 143.5z" />
<glyph unicode=")" horiz-adv-x="618" d="M55 -45q55 8 107.5 34.5t91.5 65.5t62.5 88.5t23.5 102.5v852q0 51 -23.5 100t-62.5 89t-91 66.5t-108 35.5v112h29q80 0 160 -19.5t143.5 -61.5t102 -106.5t38.5 -152.5v-979q0 -90 -36.5 -154.5t-98 -105.5t-140.5 -60.5t-161 -19.5h-37v113z" />
<glyph unicode="*" horiz-adv-x="602" d="M63 881q0 35 20.5 64.5t57.5 29.5q25 0 50.5 -28.5t52.5 -74.5q-6 31 -11.5 61t-5.5 52q0 35 20.5 64.5t57.5 29.5q35 0 55.5 -29.5t20.5 -64.5q0 -18 -5 -45t-14 -55q27 39 50.5 64.5t46.5 25.5q37 0 57.5 -29.5t20.5 -64.5q0 -55 -53.5 -89t-123.5 -63q31 -18 63 -30.5 t56.5 -27t40 -35t15.5 -54.5q0 -35 -21.5 -65t-56.5 -30q-23 0 -46.5 24t-48.5 60q6 -25 10.5 -49t4.5 -41q0 -35 -20.5 -64.5t-55.5 -29.5q-37 0 -57.5 29.5t-20.5 64.5q0 25 17 94q-27 -39 -50.5 -63.5t-46.5 -24.5q-35 0 -55 30t-20 65q0 31 14 52t38.5 37.5t55.5 30 t64 27.5q-70 29 -123.5 62.5t-53.5 89.5z" />
<glyph unicode="+" horiz-adv-x="497" d="M57 567v217h123v179h139v-179h119v-217h-119v-184h-139v184h-123z" />
<glyph unicode="," horiz-adv-x="409" d="M76 68q0 59 35.5 107t95.5 48q63 0 98 -54t35 -122q0 -39 -14.5 -83t-39 -86t-56 -78t-66.5 -58l-80 63q80 49 86 101q-94 37 -94 162z" />
<glyph unicode="-" horiz-adv-x="522" d="M98 567v217h322v-217h-322z" />
<glyph unicode="." horiz-adv-x="423" d="M80 68q0 59 35 107t94 48q61 0 96 -48t35 -107t-35 -107.5t-96 -48.5q-59 0 -94 48t-35 108z" />
<glyph unicode="/" horiz-adv-x="651" d="M35 -16l448 1378h133l-436 -1378h-145z" />
<glyph unicode="0" horiz-adv-x="1017" d="M92 311v721q0 338 416 338h8q211 0 309.5 -85t98.5 -253v-721q0 -338 -408 -338h-8q-416 0 -416 338zM340 336q0 -264 168 -264t168 264v672q0 135 -40 199.5t-128 64.5q-86 0 -127 -64.5t-41 -199.5v-672z" />
<glyph unicode="1" horiz-adv-x="661" d="M59 1085v117q33 0 65 12.5t56.5 34t40 50t15.5 63.5h247v-1243q0 -18 111 -19v-116h-473v118q115 0 115 17v1005q-57 -39 -177 -39z" />
<glyph unicode="2" horiz-adv-x="974" d="M84 -16v329q0 160 82 273.5t248 154.5q119 29 175 83.5t56 162.5q0 141 -52 208t-165 67q-82 0 -144.5 -34t-109.5 -116l-63 109q74 80 166 112.5t202 32.5h13q199 -2 295 -99.5t96 -308.5v-6q-2 -276 -330 -350q-223 -49 -223 -285v-235h395q23 0 45 215h94l25 -313 h-805z" />
<glyph unicode="3" horiz-adv-x="980" d="M63 123l64 110q53 -86 118.5 -122.5t151.5 -36.5q262 0 262 276v6q0 264 -231 265h-133v104h143q111 0 159 65.5t48 206.5v9q-2 135 -55 198.5t-176 63.5h-6q-135 0 -224 -156l-63 109q76 82 160 116.5t182 34.5h10q205 -2 301 -84t96 -268v-6q-4 -254 -178 -330 q207 -96 207 -326q0 -209 -104.5 -298t-319.5 -89h-8q-127 2 -222 34t-182 118z" />
<glyph unicode="4" horiz-adv-x="1048" d="M72 264l544 1096h242v-957h109v-139h-109v-145q0 -18 109 -41v-94h-471v96q115 18 114 39v145h-538zM279 403h331v674l-20 -47z" />
<glyph unicode="5" horiz-adv-x="972" d="M72 113l63 75q131 -113 262 -112q129 2 188.5 69.5t59.5 208.5q0 322 -258 322h-10q-113 0 -268 -80v764h710l-24 -270h-95q-20 174 -45 174h-309v-492q59 20 160 21q383 -2 383 -408v-6q0 -199 -110.5 -305.5t-340.5 -106.5q-92 0 -182 39t-184 107z" />
<glyph unicode="6" horiz-adv-x="995" d="M92 377v645q0 338 469 338h219l-24 -270h-92q-20 174 -46 174h-57q-219 0 -221 -308v-137q82 74 207 74q74 0 140.5 -26.5t116.5 -74t80.5 -112t30.5 -139.5v-238q0 -166 -104 -252t-303 -86q-217 0 -316.5 100.5t-99.5 311.5zM340 389q0 -326 168 -326q43 0 74.5 15.5 t51 53.5t29 99.5t9.5 153.5v27q-2 365 -164 364q-86 0 -168 -82v-305z" />
<glyph unicode="7" horiz-adv-x="892" d="M80 1386h774l-479 -1402h-234l420 1263h-319q-25 0 -45 -174h-93z" />
<glyph unicode="8" horiz-adv-x="1087" d="M88 322v73q0 190 166 277q-166 86 -166 276v74q0 166 123 252t334 86q217 0 335.5 -86t118.5 -252v-74q0 -190 -165 -276q166 -86 165 -277v-73q0 -166 -118.5 -252t-335.5 -86q-211 0 -334 86t-123 252zM334 358q0 -100 56 -167.5t155 -67.5q92 0 151.5 65.5t59.5 169.5 q0 100 -56.5 168t-154.5 68t-154.5 -67.5t-56.5 -168.5zM334 985q0 -100 56 -167.5t155 -67.5q92 0 151.5 65.5t59.5 169.5q0 100 -56.5 168t-154.5 68t-154.5 -68t-56.5 -168z" />
<glyph unicode="9" horiz-adv-x="993" d="M78 782v252q0 166 104.5 252t302.5 86q217 0 316.5 -103.5t99.5 -320.5v-651q-4 -84 -42 -147.5t-96 -106.5t-133 -64.5t-151 -21.5q-98 0 -185 37t-155 112l74 84q47 -53 92 -74.5t92 -21.5q49 0 95.5 20.5t83 56.5t58 85t21.5 106v142q-86 -74 -209 -74 q-74 0 -140 26.5t-116.5 74t-81 112t-30.5 139.5zM322 913q2 -338 163 -338q80 0 170 80v281q0 297 -170 297q-92 0 -127.5 -69.5t-35.5 -235.5v-15z" />
<glyph unicode=":" horiz-adv-x="436" d="M86 68q0 59 35 107t96 48q59 0 95 -48t36 -107t-36 -107.5t-95 -48.5q-61 0 -96 48t-35 108zM86 680q0 59 35 107.5t96 48.5q59 0 95 -48.5t36 -107.5t-36 -107.5t-95 -48.5q-61 0 -96 48.5t-35 107.5z" />
<glyph unicode=";" horiz-adv-x="411" d="M74 68q0 59 35.5 107t95.5 48q63 0 98 -52t35 -124q0 -39 -14.5 -83t-39 -86t-56 -78t-66.5 -58l-80 63q80 49 86 101q-94 37 -94 162zM74 680q0 59 35.5 107.5t95.5 48.5q59 0 95 -48.5t36 -107.5t-36 -107.5t-95 -48.5t-95 48.5t-36 107.5z" />
<glyph unicode="&#x3c;" horiz-adv-x="610" d="M117 606v111l370 360v-188l-280 -232l280 -223v-184z" />
<glyph unicode="=" horiz-adv-x="632" d="M98 401v217h463v-217h-463zM98 733v217h463v-217h-463z" />
<glyph unicode="&#x3e;" horiz-adv-x="610" d="M115 246v188l278 232l-278 223v184l370 -356v-111z" />
<glyph unicode="?" horiz-adv-x="905" d="M68 1233q141 129 352 129q88 0 163.5 -23.5t130 -68.5t85 -107.5t30.5 -140.5q0 -346 -268 -420q-227 -61 -227 -141q4 -66 63 -174l-135 -27q-80 129 -80 211v4q0 86 63.5 147.5t192.5 116.5q80 35 117 97.5t37 144.5v6q-2 227 -246 232q-113 0 -209 -84zM201 68 q0 59 35.5 107t95.5 48q61 0 96 -48t35 -107t-35 -107.5t-96 -48.5q-59 0 -95 48t-36 108z" />
<glyph unicode="@" horiz-adv-x="888" d="M90 473v330q0 289 301 289q334 0 334 -277v-176q0 -51 -12.5 -96t-34 -79t-54 -53.5t-71.5 -19.5q-53 0 -80 21q-35 -25 -84 -25q-76 0 -104.5 36t-28.5 124q0 45 4 75.5t16.5 51t34 35t58.5 26.5q16 6 29.5 11.5t17.5 9.5q-10 74 -41 73q-23 0 -74 -38l-35 63 q86 80 152 80q45 0 72.5 -16.5t43 -60.5t21.5 -119.5t6 -194.5q0 -31 6 -31q27 0 27 76v198q0 180 -203 181q-74 0 -121 -56.5t-47 -136.5v-256q0 -86 49.5 -136t135.5 -50h274q16 0 55 125h74v-250h-403q-143 0 -230.5 68.5t-87.5 197.5zM393 512q33 0 33 90v10l-2 9 q-16 -4 -23.5 -17.5t-7.5 -62.5v-29z" />
<glyph unicode="A" d="M55 -16v96q113 20 119 45l404 1237h100l401 -1237q6 -20 121 -45v-96h-395v94q98 14 104 33q-8 20 -12 32.5t-14 49.5h-420q-2 -4 -4 -10.5t-6 -16.5h2l-19 -55q0 -10 103 -33v-94h-484zM506 340h325l-172 530l-14 -67z" />
<glyph unicode="B" horiz-adv-x="1009" d="M74 -16v94q115 23 114 41v1073q0 29 -114 76v92h225q63 6 121 6q450 0 450 -375q0 -213 -170 -305q231 -121 232 -342v-6q0 -174 -99.5 -264t-304.5 -90h-454zM436 129q10 -2 15.5 -3t7.5 -1h24h11q193 0 192 233v7q0 241 -211 241h-2h-37v-477zM436 745h31 q86 2 132 59.5t46 174.5q0 238 -127 238h-10q-29 0 -72 -13v-459z" />
<glyph unicode="C" horiz-adv-x="944" d="M90 311v711q0 338 467 338h299l-25 -313h-94q-20 174 -45 174h-139q-215 0 -215 -265v-579q0 -264 219 -264q147 4 266 92l41 -99q-72 -63 -159 -99t-193 -36q-76 0 -150.5 22.5t-135 65.5t-98.5 106.5t-38 145.5z" />
<glyph unicode="D" horiz-adv-x="1036" d="M82 -16v94q115 23 115 41v1091q0 35 -115 54v96h393q469 0 469 -379v-619q0 -199 -101.5 -288.5t-305.5 -89.5h-455zM444 129q2 -2 17 -2h16q219 0 219 260v569q0 258 -221 258q-10 0 -16 -1t-15 -3v-1081z" />
<glyph unicode="E" horiz-adv-x="978" d="M80 -16v92q115 23 115 49v1094q0 27 -115 49v92h803l-25 -313h-94q-20 174 -43 174h-279v-480h349l-27 -139h-322v-479h279q23 0 43 174h94l25 -313h-803z" />
<glyph unicode="F" horiz-adv-x="927" d="M80 -16v96q115 18 115 39v1100q0 27 -115 49v92h803l-25 -313h-94q-20 174 -43 174h-279v-480h349l-27 -139h-322v-483q0 -20 111 -41v-94h-473z" />
<glyph unicode="G" horiz-adv-x="972" d="M90 322v700q0 78 37 140.5t101.5 106.5t148.5 67.5t180 23.5h297l-25 -313h-92q-20 174 -45 174h-135q-41 0 -81 -23.5t-70.5 -62.5t-49 -86.5t-18.5 -92.5v-569q0 -53 18.5 -101t52 -84t80 -57.5t99.5 -21.5v487q0 18 -111 41v94h410v-94q-115 -23 -115 -41v-487 q0 -23 115 -45v-94h-330q-96 0 -180 23.5t-148.5 67.5t-101.5 106.5t-37 140.5z" />
<glyph unicode="H" horiz-adv-x="1187" d="M84 -16v94q115 23 115 41v1106q0 18 -115 41v94h477v-94q-115 -23 -115 -41v-484h293v484q0 20 -112 41v94h475v-94q-115 -23 -115 -41v-1108q0 -16 115 -39v-94h-475v94q113 20 112 41v483h-293v-485q0 -16 115 -39v-94h-477z" />
<glyph unicode="I" horiz-adv-x="618" d="M70 -16v94q115 23 114 41v1106q0 18 -114 41v94h477v-94q-115 -23 -115 -41v-1108q0 -16 115 -39v-94h-477z" />
<glyph unicode="J" horiz-adv-x="741" d="M53 -16v92q57 8 105.5 37.5t83 72.5t55 95.5t20.5 105.5v838q0 25 -108 41v94h471v-94q-115 -23 -115 -41v-903q0 -80 -39 -142.5t-108.5 -106.5t-162.5 -66.5t-202 -22.5z" />
<glyph unicode="K" horiz-adv-x="1120" d="M84 -16v94q115 23 115 41v1106q0 18 -109 41v94h471v-94q-115 -23 -115 -41v-443l244 473q51 104 166 105h141v-96h-67q-63 0 -101 -74l-206 -404l301 -661q8 -25 90 -25h30v-116h-188q-139 0 -199 127l-211 491v-485q0 -18 111 -39v-94h-473z" />
<glyph unicode="L" horiz-adv-x="935" d="M80 1266v94h473v-94q-102 -23 -102 -39v-1104h270q25 0 45 174h92l25 -313h-795v96q106 18 107 37v1108q0 18 -115 41z" />
<glyph unicode="M" horiz-adv-x="1333" d="M86 -16v96q115 18 115 39v1100q0 29 -115 51v92h332l227 -868l14 -84l15 86l221 866h352v-92q-115 -23 -114 -51v-1100q0 -20 114 -39v-96h-471v94q109 23 109 41v649l-193 -784h-127l-207 786v-651q0 -18 109 -41v-94h-381z" />
<glyph unicode="N" horiz-adv-x="1150" d="M76 -16v96q115 18 114 39v1100q0 29 -114 51v92h252l471 -739v739h272v-92q-115 -23 -115 -51v-1342l-608 946v-704q0 -18 109 -41v-94h-381z" />
<glyph unicode="O" horiz-adv-x="1099" d="M92 311v721q0 338 457 338h8q449 0 449 -338v-721q0 -338 -449 -338h-8q-457 0 -457 338zM340 377q0 -264 209 -264t209 264v590q0 135 -49.5 199.5t-159.5 64.5q-209 0 -209 -264v-590z" />
<glyph unicode="P" horiz-adv-x="995" d="M84 -16v96q115 18 115 39v1077q0 25 -115 47v117h389q465 0 469 -381q0 -369 -496 -373v-487q0 -18 109 -41v-94h-471zM446 745q250 6 250 234v16q0 98 -49 161t-153 63q-10 0 -22.5 -1t-25.5 -4v-469z" />
<glyph unicode="Q" horiz-adv-x="1077" d="M76 311v721q0 338 456 338q229 0 343 -79t114 -259v-721q0 -160 -84 -241.5t-243 -87.5q6 -104 79.5 -174t184.5 -89v-112q-98 0 -189.5 26.5t-162 75.5t-113.5 118t-47 153q-174 6 -256 89t-82 242zM324 377q0 -129 47 -191.5t151 -62.5t161.5 62.5t57.5 191.5v590 q0 264 -209 264t-208 -264v-590z" />
<glyph unicode="R" horiz-adv-x="1187" d="M86 -16v96q115 18 115 39v1077q0 25 -115 47v117h451q471 0 471 -367q0 -213 -177 -317q174 -61 175 -285v-272q0 -18 108 -41v-92h-172q-80 0 -131 49t-51 131v199q0 237 -211 237h-2h-98v-483q0 -20 110 -41v-94h-473zM449 741h92q219 4 219 238v6q0 236 -223 236 q-86 0 -88 6v-486z" />
<glyph unicode="S" horiz-adv-x="954" d="M74 1022q0 338 456 338h258l-24 -313h-94q-18 174 -43 174h-97q-221 0 -223 -205v-6q0 -104 59.5 -168t176.5 -101q166 -53 247.5 -153.5t81.5 -237.5v-4q0 -362 -466 -362q-139 0 -314 125l31 98q145 -84 283 -84q231 10 231 211q0 92 -58.5 157.5t-177.5 112.5 q-166 68 -246.5 175.5t-80.5 242.5z" />
<glyph unicode="T" horiz-adv-x="978" d="M66 1360h845l-24 -313h-94q-20 174 -45 174h-136v-1102q0 -18 109 -41v-94h-471v96q115 18 115 39v1102h-136q-25 0 -45 -174h-94z" />
<glyph unicode="U" horiz-adv-x="1214" d="M76 1266v94h471v-94q-111 -23 -111 -41v-846q0 -264 226 -264q98 0 145 64.5t47 199.5v846q0 18 -109 41v94h394v-94q-115 -23 -115 -41v-912q0 -338 -362 -338q-242 0 -358 86t-116 252v912q0 20 -112 41z" />
<glyph unicode="V" horiz-adv-x="1253" d="M53 1266v94h484v-94q-94 -20 -103 -33q14 -47 70.5 -232.5t159.5 -525.5l6 39l235 719q-8 14 -100 33v94h393v-94q-109 -18 -119 -47l-403 -1233h-101l-401 1233v-2q-8 20 -121 49z" />
<glyph unicode="W" horiz-adv-x="1609" d="M53 1268v94h498v-94q-98 -18 -105 -33l170 -670l187 797h119l186 -795l162 668q-6 14 -105 33v94h396v-94q-113 -20 -119 -47l-314 -1235h-100l-211 706l-178 -706h-102l-365 1235q-6 23 -119 47z" />
<glyph unicode="X" horiz-adv-x="1150" d="M78 1266v94h471v-94q-88 -20 -88 -27q0 -2 29.5 -81t91.5 -234l6 -29l153 344q53 121 152 121h111v-94q-109 -23 -121 -49l-207 -465l276 -625q14 -29 123 -49v-94h-471v96q88 14 88 26q-35 76 -70.5 152t-70.5 154l-8 37l-154 -345q-53 -120 -140 -120h-1h-121v94 q106 12 121 49l217 491l-264 599q-12 27 -123 49z" />
<glyph unicode="Y" horiz-adv-x="1187" d="M59 1266v94h471v-94q-111 -23 -110 -41v-307q0 -262 211 -265h4q104 0 153.5 67.5t49.5 197.5v307q0 18 -109 41v94h393v-94q-115 -23 -114 -41v-371q0 -135 -64.5 -217t-187.5 -117v-401q0 -18 108 -41v-94h-471v96q115 18 115 39v401q-334 70 -334 354v351 q0 18 -115 41z" />
<glyph unicode="Z" horiz-adv-x="976" d="M94 1360h791l-535 -1237h375q25 0 45 174h92l25 -313h-787v170l473 1067h-315q-25 0 -45 -174h-94z" />
<glyph unicode="\" horiz-adv-x="651" d="M35 1360h131l450 -1376h-145z" />
<glyph unicode="^" horiz-adv-x="2048" />
<glyph unicode="_" horiz-adv-x="1091" d="M98 -225h893v-185h-893v185z" />
<glyph unicode="`" horiz-adv-x="518" d="M4 1700h244l235 -221h-159z" />
<glyph unicode="a" horiz-adv-x="890" d="M82 268q4 293 289 293h8q100 -16 164 -31q-4 279 -162 281h-70q-25 0 -45 -143h-92l-24 241h217q389 0 389 -340v-428q0 -59 51 -59l4 -100h-119q-76 2 -100 104q-78 -109 -223 -109q-287 0 -287 291zM299 266q2 -186 102 -186q143 0 144 209v149q-29 6 -51.5 10.5 t-38.5 4.5q-78 0 -117 -38t-39 -139v-10z" />
<glyph unicode="b" horiz-adv-x="905" d="M78 -16v94q113 20 112 67v1080q0 20 -112 41v94h309v-475q35 25 70 31t69 6q317 0 318 -357v-254q0 -340 -301 -340q-74 0 -156 64v-51h-309zM387 104q23 -29 70 -30q186 0 186 372q0 371 -174 371q-35 0 -82 -29v-684z" />
<glyph unicode="c" horiz-adv-x="759" d="M82 453q0 229 102.5 342.5t319.5 113.5h176l-25 -270h-94q-20 174 -45 174h-43q-178 0 -178 -369q0 -340 207 -340h4q45 0 82 3.5t71 9.5v-94q-78 -25 -145.5 -39.5t-122.5 -16.5q-309 0 -309 486z" />
<glyph unicode="d" horiz-adv-x="894" d="M63 311v254q0 350 328 350q53 0 123 -45v355q0 18 -115 41v94h310v-1223q0 -37 114 -59v-94h-309v41q-66 -59 -147 -60q-82 0 -139.5 29t-94.5 77t-53.5 110.5t-16.5 129.5zM264 446q0 -370 182 -370q20 0 68 30v682q-94 35 -90 35h-6q-152 0 -154 -377z" />
<glyph unicode="e" horiz-adv-x="847" d="M84 426q0 242 86 367t272 125q326 0 326 -463h-471q2 -383 215 -383h4q82 2 170 149l84 -57q-88 -199 -326 -199h-8q-180 2 -266 120t-86 341zM303 553h250q-4 270 -123 272h-2q-119 0 -125 -272z" />
<glyph unicode="f" horiz-adv-x="626" d="M57 -16v96q115 18 115 39v667q0 4 -115 27v96h115v113q0 338 399 338v-98h-20q-178 0 -182 -306v-47h129v-96q-129 -23 -129 -27v-667q0 -18 108 -41v-94h-420z" />
<glyph unicode="g" horiz-adv-x="917" d="M68 481v8q4 428 362 429h14q98 0 189 -50q16 23 16 56v14q0 10 -2 12v21q0 76 92 92q92 0 92 -100q0 -88 -102 -166q68 -86 68 -318q-4 -250 -156 -364q186 -59 188 -174v-2q0 -254 -593 -254h-58l25 274h94q18 -176 43 -176h43q235 37 235 163q0 89 -184 93 q-367 4 -366 442zM289 481q0 -338 145 -338q139 0 139 338q-4 338 -141 338q-143 0 -143 -325v-13z" />
<glyph unicode="h" horiz-adv-x="1054" d="M84 -16v96q115 18 115 39v1106q0 18 -111 41v94h305v-531q59 80 154 89h14q332 0 332 -349v-450q0 -20 111 -41v-94h-416v96q115 18 114 39v418q0 282 -152 282h-1q-78 0 -117 -80t-39 -260v-360q0 -20 111 -41v-94h-420z" />
<glyph unicode="i" horiz-adv-x="538" d="M63 -16v96q115 18 115 39v655q0 18 -110 41v94h301v-790q0 -18 108 -41v-94h-414zM133 1176q0 59 35 107t96 48q59 0 95 -48t36 -107t-35.5 -107.5t-95.5 -48.5q-61 0 -96 48t-35 108z" />
<glyph unicode="j" horiz-adv-x="587" d="M43 -217q113 16 178.5 100t65.5 203v688q0 18 -109 41v94h305v-889q0 -166 -114.5 -251.5t-325.5 -85.5v100zM240 1176q0 59 35.5 107t95.5 48q59 0 95 -48t36 -107t-36 -107.5t-95 -48.5t-95 48t-36 108z" />
<glyph unicode="k" horiz-adv-x="978" d="M82 -16v94q115 18 115 39v1110q0 18 -111 41v92h305v-852l211 268q-6 25 -94 39v94h356v-94q-98 -14 -121 -51l-204 -258l270 -373q41 -51 125 -53v-96h-137q-123 0 -195 84l-211 307v-258q0 -20 109 -39v-94h-418z" />
<glyph unicode="l" horiz-adv-x="546" d="M66 -16v94q115 18 114 41v1106q0 18 -110 41v94h307v-1241q0 -18 108 -41v-94h-419z" />
<glyph unicode="m" horiz-adv-x="1468" d="M94 -16v96q113 18 113 39v655q0 18 -109 41v94h305v-39q43 47 117 48q76 0 131.5 -23t96.5 -66q35 43 80.5 66t107.5 23q94 -4 156.5 -26t100.5 -63t53.5 -105.5t15.5 -154.5v-450q0 -20 110 -41v-94h-416v96q115 18 115 39v452q0 43 -3 86t-17.5 78t-41 56.5t-73.5 21.5 q-74 0 -91.5 -38t-17.5 -105v-551q0 -18 109 -41v-94h-393v96q113 18 112 39v452q0 43 -3 86t-17 78t-41 56.5t-74 21.5q-41 0 -63.5 -16.5t-34.5 -42t-15.5 -60.5t-3.5 -71v-504q0 -20 111 -41v-94h-420z" />
<glyph unicode="n" horiz-adv-x="1103" d="M88 -16v96q115 18 115 39v655q0 18 -109 41v94h305v-73q33 37 72 59.5t84 22.5q193 0 279 -81t86 -268v-450q0 -20 110 -41v-94h-436v96q115 18 115 39v450q0 117 -38 179.5t-116 62.5t-117 -58.5t-39 -162.5v-471q0 -18 109 -41v-94h-420z" />
<glyph unicode="o" horiz-adv-x="907" d="M88 326v254q0 338 352 338q377 0 377 -338v-254q0 -350 -360 -351q-369 0 -369 351zM299 444q0 -370 157 -370v0h2q148 0 148 370q-4 375 -164 375h-2q-141 0 -141 -375z" />
<glyph unicode="p" horiz-adv-x="911" d="M82 -219q113 18 115 39v913q0 37 -115 60v116h309v-43q63 57 148 58q70 0 125 -27t95 -73t61.5 -109.5t21.5 -136.5v-254q0 -350 -328 -351q-61 0 -121 41v-194q0 -18 109 -41v-94h-420v96zM391 109q94 -35 90 -35q160 0 160 368q0 377 -182 377q-29 0 -68 -33v-677z" />
<glyph unicode="q" horiz-adv-x="886" d="M68 326v254q0 338 350 338q379 0 379 -338v-254q0 -174 -61.5 -258t-196.5 -88q2 -37 26.5 -73t62.5 -63.5t83 -44t88 -16.5v-98q-92 0 -174 16t-143.5 51t-99.5 91.5t-44 136.5q-270 12 -270 346zM279 444q0 -372 150 -372h1h1q155 0 155 372q-4 379 -166 379h-2 q-139 0 -139 -379z" />
<glyph unicode="r" horiz-adv-x="821" d="M82 -16v96q115 18 115 39v655q0 18 -111 41v94h305v-67q57 82 150 82h6q31 0 64.5 -6.5t64.5 -26t55.5 -55t34.5 -93.5v-2q0 -63 -42 -108t-108 -45q-57 0 -92 39t-35 94q0 49 43 92q-4 0 -10 1t-10 1q-25 0 -46.5 -10t-37.5 -41t-26.5 -86t-10.5 -146v-413 q0 -20 111 -41v-94h-420z" />
<glyph unicode="s" horiz-adv-x="757" d="M76 80l65 102q94 -106 170 -106q78 0 121 30.5t43 108.5q0 45 -29.5 74.5t-72.5 56.5t-95.5 52.5t-95.5 62.5t-72.5 87t-29.5 126q0 233 364 235h199l-25 -315h-94q-29 219 -110 219q-66 0 -97.5 -30.5t-31.5 -116.5q0 -41 25.5 -76t62.5 -64.5t76.5 -52t68.5 -39.5 q37 -23 65.5 -42t48 -41.5t30 -52.5t10.5 -73v-6q-2 -123 -79 -183.5t-220 -62.5q-178 0 -297 107z" />
<glyph unicode="t" horiz-adv-x="542" d="M49 811v98h113v232q117 0 168 106l28 -6v-332h111v-98q-111 -23 -111 -27v-465q0 -201 121 -243v-92q-317 47 -317 290v510q0 6 -113 27z" />
<glyph unicode="u" horiz-adv-x="946" d="M70 815v94h301v-590q0 -117 24.5 -180t108.5 -63q78 0 107.5 63.5t29.5 179.5v457q0 16 -111 39v94h273v-768q0 -59 55 -59v-98h-121q-49 4 -71 71q-70 -76 -162 -80q-92 0 -154.5 20.5t-100.5 63.5t-53.5 108.5t-15.5 158.5v450q0 16 -110 39z" />
<glyph unicode="v" horiz-adv-x="976" d="M35 815v94h442v-94q-104 -16 -104 -31q0 -2 9 -44t28.5 -107.5t49 -147.5t68.5 -161l152 462q-2 6 -98 29v94h352v-94q-109 -16 -123 -49h2l-274 -782h-78l-305 782v-2q-16 31 -121 51z" />
<glyph unicode="w" horiz-adv-x="1284" d="M47 815v94h440v-94q-106 -18 -106 -33q0 6 24.5 -98t71.5 -328l125 553h178l129 -561l99 436q-6 10 -101 31v94h336v-94q-111 -23 -121 -47v2l-188 -786h-117l-164 659l-149 -659h-113l-229 786v-2q-10 29 -115 47z" />
<glyph unicode="x" horiz-adv-x="983" d="M82 815v94h440v-92q-92 -29 -92 -33l80 -188l104 192q59 121 195 121h47v-96q-106 0 -127 -49l-143 -285l190 -350v2q23 -35 127 -53v-94h-442v94q88 14 96 26l-90 199l-107 -199q-65 -120 -194 -120h-2h-45v98q90 0 127 51v-2l149 289l-186 344l2 -2q-23 33 -129 53z " />
<glyph unicode="y" horiz-adv-x="1007" d="M74 819v90h442v-94q-90 -23 -102 -31l155 -469l152 471q-6 14 -100 29v94h342v-94q-109 -16 -123 -49h2l-258 -754v2q-25 -78 -72 -139t-108.5 -103t-132 -64.5t-140.5 -22.5v96q258 39 328 262l-266 723l2 -2q-12 25 -121 55z" />
<glyph unicode="z" horiz-adv-x="870" d="M92 909h696l-456 -827h286q25 0 46 174h92l24 -272h-665v151l372 678h-233q-25 0 -45 -174h-92z" />
<glyph unicode="{" horiz-adv-x="2895" d="M127 0v600h2v96h137v58h-37v180h37v63h-37v76h899v-94q-14 27 -49 27q-94 0 -94 -158q0 -156 98 -156q31 0 64 39v-35h49v377h766v-53h70v53h737v-1073h-2642zM129 754v180h39v-180h-39zM129 997v76h39v-76h-39zM186 160h123v86h-45v301h-78v-387zM289 823 q0 -131 94 -131q29 0 51 17q0 -47 -57 -47h-31v-62h43q113 12 113 145v252h-68v-186q0 -53 -41 -53q-39 0 -39 53v186h-65v-174zM340 160h76v73h26v-73h82v141l-53 246h-84l-47 -246v-141zM416 291v39l12 102h4l10 -102v-39h-26zM524 600h68v115q14 -25 49 -25q94 0 94 156 t-98 155q-29 0 -64 -40v36h-49v-397zM555 160h78v170h22v-170h84v155l-30 43v7l30 41v100l-22 41h-162v-387zM586 793v102q12 31 43 31q43 0 43 -78q0 -88 -45 -88q-29 0 -41 33zM633 393v84h22v-84h-22zM750 844q0 -156 110 -156q113 0 113 156q0 160 -113 160 q-111 0 -110 -160zM770 160h78v73h24v-73h78v141l-49 246h-84l-47 -246v-141zM817 844q0 84 43 84q45 0 45 -84q0 -82 -45 -82q-43 0 -43 82zM848 291v39l10 102h6l8 -102v-39h-24zM983 160h162l22 43v127l-16 28v7l16 28v113l-22 41h-162v-387zM1049 846q0 88 45 88 q27 0 39 -33v-104q-12 -29 -41 -29q-43 0 -43 78zM1063 233v97h22v-97h-22zM1063 393v84h22v-84h-22zM1200 160h80v387h-80v-387zM1214 774q2 -86 93 -86q45 0 70.5 26.5t25.5 82.5h-31q-6 -39 -51 -39q-41 0 -41 28q0 37 41 37h20v37h-20q-41 0 -41 35q0 33 41 33 q35 0 51 -41h31v110h-31v-47q-23 53 -67 54q-88 0 -88 -89q0 -55 45 -73q-47 -18 -48 -68zM1311 160h131v86h-53v80h53v67h-53v72h53v82h-131v-387zM1425 696h91v58h-29v133q0 41 29 41q12 0 24 -13l23 68q-16 14 -35 16q-43 0 -64 -49v47h-39v-301zM1530 160h80v159h49v68 h-49v78h49v82h-129v-387zM1544 696h144v58h-39v125q0 47 39 47q31 0 30 -47v-183h105v58h-39v125q0 45 39 45q31 0 30 -45v-183h68v193q0 111 -96 110q-49 0 -64 -49q-18 49 -57 49q-35 0 -55 -49v47h-66v-243h-39v-58zM1692 203l20 -43h137l25 43v303l-23 41h-139l-20 -41 v-303zM1769 233v244h23v-244h-23zM1905 160h65v250h6l19 -250h119v387h-66v-250h-6l-23 250h-114v-387zM1931 934h31v-238h70v301h-101v-63zM2048 844q0 -154 104 -154q74 0 93 119h-33q-6 -47 -51 -47q-47 0 -47 82q0 84 47 84t51 -56h33v121h-33v-43q-25 53 -62 54 q-102 0 -102 -160zM2136 465h43v-305h80v305h43v82h-166v-82zM2324 203l23 -43h133l23 43v147l-27 43l-72 17v67h21v-49h78v78l-21 41h-135l-23 -41v-135l25 -41l76 -19v-78h-21v58h-80v-88z" />
<glyph unicode="|" horiz-adv-x="337" d="M98 -111v1565h131v-1565h-131z" />
<glyph unicode="~" horiz-adv-x="577" d="M57 1178l129 131h93l47 -47l45 47h157l-131 -131h-102l-41 41l-39 -41h-158z" />
<glyph unicode="&#xa1;" horiz-adv-x="479" d="M94 -168q0 106 7.5 212t19.5 222q12 117 30.5 251t41.5 257h110q18 -100 33.5 -223t28.5 -234q10 -111 15 -207t5 -194q0 -47 -5 -85t-20.5 -66.5t-45 -44t-81.5 -15.5q-61 0 -100 34t-39 93zM115 989q0 59 36 107.5t95 48.5t95 -48t36 -108q0 -59 -36 -107t-95 -48 t-95 48t-36 107z" />
<glyph unicode="&#xa2;" horiz-adv-x="759" d="M82 678q0 193 67.5 300t215.5 142v150h131v-135h161l-2 -101q-20 2 -45.5 3t-42.5 1h-71v-708h10q45 0 82 3t71 9v-94q-45 -16 -86 -27.5t-77 -17.5v-170h-131v160q-147 10 -215 129.5t-68 355.5zM295 670q0 -199 70 -281v596q-70 -88 -70 -315z" />
<glyph unicode="&#xa3;" horiz-adv-x="993" d="M72 -16v96q106 18 112 47l183 682h-142v100h168l33 117q43 160 161 245t322 89l-8 -98q-213 0 -283 -310l-12 -43h142v-100h-168l-183 -686h348q25 0 46 174h92l24 -313h-835z" />
<glyph unicode="&#xa4;" horiz-adv-x="1011" d="M72 500v135h137v72h-137v133h137v182q0 338 467 338h336l-133 -313h-95q39 174 17 174h-129q-215 0 -215 -265v-116h334l-62 -133h-272v-72h239l-61 -135h-178v-123q0 -264 219 -264q147 4 266 92l41 -99q-63 -63 -160 -100q-94 -35 -192 -35q-117 0 -221.5 50.5 t-163.5 144.5q-37 63 -37 145v189h-137z" />
<glyph unicode="&#xa5;" horiz-adv-x="1187" d="M110 1266v94h471v-94q-111 -23 -110 -41v-307q0 -262 211 -265h4q104 0 153.5 67.5t49.5 197.5v307q0 18 -109 41v94h393v-94q-115 -23 -114 -41v-371q0 -135 -64.5 -217t-187.5 -117v-401q0 -18 108 -41v-94h-471v96q115 18 115 39v401q-334 70 -334 354v351 q0 18 -115 41zM291 198v97h882v-97h-882zM291 347v97h882v-97h-882z" />
<glyph unicode="&#xa7;" horiz-adv-x="757" d="M76 80l65 102q94 -106 170 -106q78 0 121 30.5t43 108.5q0 45 -29.5 74.5t-72.5 56.5t-95.5 52.5t-95.5 62.5t-72.5 87t-29.5 126q0 150 158 205q-74 43 -116 100t-42 149q2 231 364 236h199l-25 -315h-94q-29 219 -110 219q-66 0 -97.5 -31t-31.5 -117q0 -41 25.5 -75.5 t62.5 -64.5t76.5 -52.5t68.5 -38.5q37 -23 65.5 -42.5t48 -42t30 -52t10.5 -72.5v-6q-10 -176 -166 -228q43 -25 74.5 -47t52 -46.5t30 -55.5t9.5 -72v-6q-2 -123 -79 -183.5t-220 -62.5q-178 0 -297 107zM285 666q0 -39 21.5 -72t58.5 -59q53 12 81.5 41.5t28.5 93.5 q0 41 -39 80h2q-16 14 -33.5 29.5t-39.5 27.5q-45 -10 -62.5 -45t-17.5 -96z" />
<glyph unicode="&#xa8;" horiz-adv-x="681" d="M92 1595q0 43 31 69t70 26q41 0 71.5 -26t30.5 -69q0 -41 -31 -66.5t-69 -25.5q-41 0 -72 25.5t-31 66.5zM389 1595q0 43 31 69t69 26q39 0 70 -28t31 -67q0 -41 -30 -66.5t-71 -25.5q-39 0 -69.5 25.5t-30.5 66.5z" />
<glyph unicode="&#xa9;" horiz-adv-x="1509" d="M59 670q0 141 54.5 267t148.5 220t220 149.5t268 55.5q141 0 267 -55.5t220 -149.5t149.5 -220t55.5 -267t-55.5 -267.5t-149.5 -220.5t-220 -148t-267 -54t-267.5 54t-220.5 148t-148.5 220.5t-54.5 267.5zM168 666q0 -123 46 -229.5t125 -185.5t185.5 -125t229.5 -46 t230.5 46t186 125t124.5 185.5t46 229.5t-46 233.5t-124.5 193.5t-186 132t-230.5 49t-229.5 -46t-185.5 -125t-125 -186.5t-46 -230.5v-20zM451 690q0 229 102 343t319 114h177l-25 -270h-94q-20 174 -45 174h-43q-178 0 -178 -369q0 -340 206 -340h4q45 0 82 3t72 9v-94 q-78 -25 -145.5 -39t-122.5 -16q-309 0 -309 485z" />
<glyph unicode="&#xab;" horiz-adv-x="835" d="M117 606v111l370 360v-188l-280 -232l280 -223v-184zM362 606v111l371 360v-188l-280 -232l280 -223v-184z" />
<glyph unicode="&#xad;" horiz-adv-x="522" d="M98 567v217h322v-217h-322z" />
<glyph unicode="&#xae;" horiz-adv-x="1292" d="M121 838q0 109 41 204t112.5 166.5t166 112.5t202.5 41q109 0 204 -41t166.5 -112.5t112.5 -167t41 -203.5q0 -109 -41 -203t-112.5 -166t-166.5 -113t-204 -41t-203 41t-165.5 113t-112.5 166t-41 203zM211 834q0 -90 34 -170t92 -139.5t138 -93.5t172 -34t172 34 t139.5 93.5t93 139t33.5 170.5q0 92 -33.5 175t-93 144t-139.5 98t-172 37t-172 -33.5t-138 -93t-92 -139.5t-34 -172v-16zM420 500v49q59 10 59 18v547q0 14 -59 25v59h229q240 0 240 -186q0 -106 -90 -160q90 -35 90 -145v-140q0 -8 53 -20v-47h-86q-41 0 -66.5 25.5 t-25.5 66.5v100q0 121 -109 121h-51v-246q0 -12 58 -20v-47h-242zM604 885h47q113 2 113 121v2q0 121 -115 120q-43 0 -45 2v-245z" />
<glyph unicode="&#xb0;" horiz-adv-x="927" d="M76 977q0 80 29.5 149.5t82 121.5t123 83t150.5 31t149.5 -31t121.5 -83t83 -121.5t31 -149.5t-31 -150.5t-83 -123t-121.5 -82t-149.5 -29.5t-150.5 29.5t-123 82t-82 123t-29.5 150.5zM193 973q0 -55 21.5 -104.5t58 -86.5t86 -58.5t104.5 -21.5q57 0 106 21.5t86 58.5 t58.5 86.5t21.5 104.5q0 57 -21.5 107t-58.5 89t-86 61.5t-106 22.5q-55 0 -104.5 -21.5t-86 -58t-58 -86t-21.5 -104.5v-10z" />
<glyph unicode="&#xb4;" horiz-adv-x="491" d="M31 1479l235 221h221l-319 -221h-137z" />
<glyph unicode="&#xb5;" horiz-adv-x="946" d="M70 815v94h301v-590q0 -117 24.5 -180t108.5 -63q78 0 107.5 63.5t29.5 179.5v457q0 16 -111 39v94h273v-768q0 -59 55 -59v-98h-121q-49 2 -71 55q-74 -61 -162 -64q-94 0 -131 15q-18 -63 -80 -124t-150 -83l-2 123q20 16 39 27.5t34 25.5t28.5 34.5t23.5 57.5 q-59 59 -72.5 125t-13.5 150v450q0 16 -110 39z" />
<glyph unicode="&#xb8;" horiz-adv-x="448" d="M35 -207l164 268h139l-90 -141q55 0 92 -38t37 -85q0 -66 -66.5 -102.5t-183.5 -36.5v61q121 41 121 78q0 20 -66 21q-20 0 -56 -5.5t-91 -19.5z" />
<glyph unicode="&#xbb;" horiz-adv-x="811" d="M115 246v188l278 232l-278 223v184l370 -356v-111zM340 246v188l278 232l-278 223v184l371 -356v-111z" />
<glyph unicode="&#xbf;" horiz-adv-x="905" d="M68 10v2v2l2 2h2l-2 -2q-2 0 -2 -2h2h2l-2 -2q-2 -2 -2 0zM70 16v2v-2zM96 45q0 346 269 420q227 61 227 141q-4 66 -64 174l136 27q80 -129 79 -211v-4q0 -86 -63.5 -147.5t-192.5 -116.5q-80 -35 -116.5 -97.5t-36.5 -144.5v-6q2 -227 246 -232q113 0 208 84l70 -98 q-141 -129 -352 -129q-90 0 -165 23.5t-129 68.5t-85 107.5t-31 140.5zM463 999q0 59 34.5 107.5t96.5 48.5q59 0 95 -48t36 -108q0 -59 -36 -107t-95 -48q-61 0 -96 48t-35 107z" />
<glyph unicode="&#xc0;" d="M106 -16v96q113 20 119 45l404 1237h100l401 -1237q6 -20 121 -45v-96h-395v94q98 14 104 33q-8 20 -12 32.5t-14 49.5h-420q-2 -4 -4 -10.5t-6 -16.5h2l-19 -55q0 -10 103 -33v-94h-484zM366 1700h244l235 -221h-159zM557 340h325l-172 530l-14 -67z" />
<glyph unicode="&#xc1;" d="M106 -16v96q113 20 119 45l404 1237h100l401 -1237q6 -20 121 -45v-96h-395v94q98 14 104 33q-8 20 -12 32.5t-14 49.5h-420q-2 -4 -4 -10.5t-6 -16.5h2l-19 -55q0 -10 103 -33v-94h-484zM516 1479l235 221h221l-319 -221h-137zM557 340h325l-172 530l-14 -67z" />
<glyph unicode="&#xc2;" d="M106 -16v96q113 20 119 45l404 1237h100l401 -1237q6 -20 121 -45v-96h-395v94q98 14 104 33q-8 20 -12 32.5t-14 49.5h-420q-2 -4 -4 -10.5t-6 -16.5h2l-19 -55q0 -10 103 -33v-94h-484zM407 1483l199 221h151l201 -221h-133l-145 123l-142 -123h-131zM557 340h325 l-172 530l-14 -67z" />
<glyph unicode="&#xc3;" d="M106 -16v96q113 20 119 45l404 1237h100l401 -1237q6 -20 121 -45v-96h-395v94q98 14 104 33q-8 20 -12 32.5t-14 49.5h-420q-2 -4 -4 -10.5t-6 -16.5h2l-19 -55q0 -10 103 -33v-94h-484zM391 1516v22q0 172 162 172h6q25 0 60.5 -12t72.5 -26.5t69 -27t44 -12.5 q51 2 53 78h86v-22q0 -172 -168 -175q-18 0 -46 7.5t-57.5 18.5t-58 22.5t-49.5 19.5v-2q-8 4 -14 6t-10 4t-12.5 3t-22.5 -1q-27 -2 -29 -75h-86zM557 340h325l-172 530l-14 -67z" />
<glyph unicode="&#xc4;" d="M106 -16v96q113 20 119 45l404 1237h100l401 -1237q6 -20 121 -45v-96h-395v94q98 14 104 33q-8 20 -12 32.5t-14 49.5h-420q-2 -4 -4 -10.5t-6 -16.5h2l-19 -55q0 -10 103 -33v-94h-484zM424 1595q0 43 31 69t70 26q41 0 71.5 -26t30.5 -69q0 -41 -31 -66.5t-69 -25.5 q-41 0 -72 25.5t-31 66.5zM557 340h325l-172 530l-14 -67zM721 1595q0 43 31 69t69 26q39 0 70 -28t31 -67q0 -41 -30 -66.5t-71 -25.5q-39 0 -69.5 25.5t-30.5 66.5z" />
<glyph unicode="&#xc5;" d="M106 -16v96q113 20 119 45l404 1237h100l401 -1237q6 -20 121 -45v-96h-395v94q98 14 104 33q-8 20 -12 32.5t-14 49.5h-420q-2 -4 -4 -10.5t-6 -16.5h2l-19 -55q0 -10 103 -33v-94h-484zM473 1579q0 33 17.5 59.5t45 45t64.5 28.5t76 10t76.5 -10t65.5 -29.5t45 -46 t17 -57.5q0 -33 -17 -59.5t-45 -45t-65.5 -28.5t-76.5 -10q-86 0 -144.5 40t-58.5 103zM557 340h325l-172 530l-14 -67zM631 1573q0 -27 13 -46.5t32 -19.5q20 0 33.5 19.5t13.5 46.5q0 29 -13.5 48t-33.5 19q-18 0 -31.5 -19t-13.5 -48z" />
<glyph unicode="&#xc6;" horiz-adv-x="1585" d="M55 -16v96q113 20 119 45l404 1237h100l233 -721v578q0 27 -114 49v92h702l-24 -313h-95q-20 174 -43 174h-178v-480h248l-27 -139h-221v-479h178q23 0 43 174h95l24 -313h-702v90l20 6q37 10 58.5 15t31.5 16v4q-12 29 -15 41t-9 37h-420q-2 -4 -4 -10.5t-6 -16.5h2 l-19 -55q0 -10 103 -33v-94h-484zM506 340h325l-172 530l-14 -67z" />
<glyph unicode="&#xc7;" horiz-adv-x="944" d="M141 311v711q0 338 467 338h299l-25 -313h-94q-20 174 -45 174h-139q-215 0 -215 -265v-579q0 -264 219 -264q147 4 266 92l41 -99q-72 -63 -159 -99t-193 -36q-76 0 -150.5 22.5t-135 65.5t-98.5 106.5t-38 145.5zM373 -207l164 268h139l-90 -141q55 0 92 -38t37 -85 q0 -66 -66.5 -102.5t-183.5 -36.5v61q121 41 121 78q0 20 -66 21q-20 0 -56 -5.5t-91 -19.5z" />
<glyph unicode="&#xc8;" horiz-adv-x="978" d="M131 -16v92q115 23 115 49v1094q0 27 -115 49v92h803l-25 -313h-94q-20 174 -43 174h-279v-480h349l-27 -139h-322v-479h279q23 0 43 174h94l25 -313h-803zM219 1700h244l235 -221h-159z" />
<glyph unicode="&#xc9;" horiz-adv-x="978" d="M131 -16v92q115 23 115 49v1094q0 27 -115 49v92h803l-25 -313h-94q-20 174 -43 174h-279v-480h349l-27 -139h-322v-479h279q23 0 43 174h94l25 -313h-803zM389 1479l235 221h221l-319 -221h-137z" />
<glyph unicode="&#xca;" horiz-adv-x="978" d="M131 -16v92q115 23 115 49v1094q0 27 -115 49v92h803l-25 -313h-94q-20 174 -43 174h-279v-480h349l-27 -139h-322v-479h279q23 0 43 174h94l25 -313h-803zM285 1483l199 221h151l201 -221h-133l-145 123l-142 -123h-131z" />
<glyph unicode="&#xcb;" horiz-adv-x="978" d="M131 -16v92q115 23 115 49v1094q0 27 -115 49v92h803l-25 -313h-94q-20 174 -43 174h-279v-480h349l-27 -139h-322v-479h279q23 0 43 174h94l25 -313h-803zM307 1595q0 43 31 69t70 26q41 0 71.5 -26t30.5 -69q0 -41 -31 -66.5t-69 -25.5q-41 0 -72 25.5t-31 66.5z M604 1595q0 43 31 69t69 26q39 0 70 -28t31 -67q0 -41 -30 -66.5t-71 -25.5q-39 0 -69.5 25.5t-30.5 66.5z" />
<glyph unicode="&#xcc;" horiz-adv-x="618" d="M39 1700h244l235 -221h-159zM121 -16v94q115 23 114 41v1106q0 18 -114 41v94h477v-94q-115 -23 -115 -41v-1108q0 -16 115 -39v-94h-477z" />
<glyph unicode="&#xcd;" horiz-adv-x="618" d="M121 -16v94q115 23 114 41v1106q0 18 -114 41v94h477v-94q-115 -23 -115 -41v-1108q0 -16 115 -39v-94h-477zM205 1479l235 221h221l-319 -221h-137z" />
<glyph unicode="&#xce;" horiz-adv-x="618" d="M86 1483l199 221h151l201 -221h-133l-145 123l-142 -123h-131zM121 -16v94q115 23 114 41v1106q0 18 -114 41v94h477v-94q-115 -23 -115 -41v-1108q0 -16 115 -39v-94h-477z" />
<glyph unicode="&#xcf;" horiz-adv-x="618" d="M117 1595q0 43 31 69t70 26q41 0 71.5 -26t30.5 -69q0 -41 -31 -66.5t-69 -25.5q-41 0 -72 25.5t-31 66.5zM121 -16v94q115 23 114 41v1106q0 18 -114 41v94h477v-94q-115 -23 -115 -41v-1108q0 -16 115 -39v-94h-477zM414 1595q0 43 31 69t69 26q39 0 70 -28t31 -67 q0 -41 -30 -66.5t-71 -25.5q-39 0 -69.5 25.5t-30.5 66.5z" />
<glyph unicode="&#xd0;" horiz-adv-x="1036" d="M133 -16v94q115 23 115 41v1091q0 35 -115 54v96h393q469 0 469 -379v-619q0 -199 -101.5 -288.5t-305.5 -89.5h-455zM163 567v217h441v-217h-441zM495 129q2 -2 17 -2h16q219 0 219 260v569q0 258 -221 258q-10 0 -16 -1t-15 -3v-1081z" />
<glyph unicode="&#xd1;" horiz-adv-x="1150" d="M127 -16v96q115 18 114 39v1100q0 29 -114 51v92h252l471 -739v739h272v-92q-115 -23 -115 -51v-1342l-608 946v-704q0 -18 109 -41v-94h-381zM336 1516v22q0 172 162 172h6q25 0 60.5 -12t72.5 -26.5t69 -27t44 -12.5q51 2 53 78h86v-22q0 -172 -168 -175q-18 0 -46 7.5 t-57.5 18.5t-58 22.5t-49.5 19.5v-2q-8 4 -14 6t-10 4t-12.5 3t-22.5 -1q-27 -2 -29 -75h-86z" />
<glyph unicode="&#xd2;" horiz-adv-x="1099" d="M143 311v721q0 338 457 338h8q449 0 449 -338v-721q0 -338 -449 -338h-8q-457 0 -457 338zM240 1700h244l235 -221h-159zM391 377q0 -264 209 -264t209 264v590q0 135 -49.5 199.5t-159.5 64.5q-209 0 -209 -264v-590z" />
<glyph unicode="&#xd3;" horiz-adv-x="1099" d="M143 311v721q0 338 457 338h8q449 0 449 -338v-721q0 -338 -449 -338h-8q-457 0 -457 338zM391 377q0 -264 209 -264t209 264v590q0 135 -49.5 199.5t-159.5 64.5q-209 0 -209 -264v-590zM471 1479l235 221h221l-319 -221h-137z" />
<glyph unicode="&#xd4;" horiz-adv-x="1099" d="M143 311v721q0 338 457 338h8q449 0 449 -338v-721q0 -338 -449 -338h-8q-457 0 -457 338zM321 1483l199 221h151l201 -221h-133l-145 123l-142 -123h-131zM391 377q0 -264 209 -264t209 264v590q0 135 -49.5 199.5t-159.5 64.5q-209 0 -209 -264v-590z" />
<glyph unicode="&#xd5;" horiz-adv-x="1099" d="M143 311v721q0 338 457 338h8q449 0 449 -338v-721q0 -338 -449 -338h-8q-457 0 -457 338zM321 1516v22q0 172 162 172h6q25 0 60.5 -12t72.5 -26.5t69 -27t44 -12.5q51 2 53 78h86v-22q0 -172 -168 -175q-18 0 -46 7.5t-57.5 18.5t-58 22.5t-49.5 19.5v-2q-8 4 -14 6 t-10 4t-12.5 3t-22.5 -1q-27 -2 -29 -75h-86zM391 377q0 -264 209 -264t209 264v590q0 135 -49.5 199.5t-159.5 64.5q-209 0 -209 -264v-590z" />
<glyph unicode="&#xd6;" horiz-adv-x="1099" d="M143 311v721q0 338 457 338h8q449 0 449 -338v-721q0 -338 -449 -338h-8q-457 0 -457 338zM350 1595q0 43 31 69t70 26q41 0 71.5 -26t30.5 -69q0 -41 -31 -66.5t-69 -25.5q-41 0 -72 25.5t-31 66.5zM391 377q0 -264 209 -264t209 264v590q0 135 -49.5 199.5t-159.5 64.5 q-209 0 -209 -264v-590zM647 1595q0 43 31 69t69 26q39 0 70 -28t31 -67q0 -41 -30 -66.5t-71 -25.5q-39 0 -69.5 25.5t-30.5 66.5z" />
<glyph unicode="&#xd8;" horiz-adv-x="1099" d="M143 311v721q0 338 457 338h8q449 0 449 -338v-721q0 -338 -449 -338h-8q-457 0 -457 338zM291 -16l448 1378h133l-436 -1378h-145zM391 377q0 -264 209 -264t209 264v590q0 135 -49.5 199.5t-159.5 64.5q-209 0 -209 -264v-590z" />
<glyph unicode="&#xd9;" horiz-adv-x="1214" d="M127 1266v94h471v-94q-111 -23 -111 -41v-846q0 -264 226 -264q98 0 145 64.5t47 199.5v846q0 18 -109 41v94h394v-94q-115 -23 -115 -41v-912q0 -338 -362 -338q-242 0 -358 86t-116 252v912q0 20 -112 41zM369 1700h244l235 -221h-159z" />
<glyph unicode="&#xda;" horiz-adv-x="1214" d="M127 1266v94h471v-94q-111 -23 -111 -41v-846q0 -264 226 -264q98 0 145 64.5t47 199.5v846q0 18 -109 41v94h394v-94q-115 -23 -115 -41v-912q0 -338 -362 -338q-242 0 -358 86t-116 252v912q0 20 -112 41zM539 1479l235 221h221l-319 -221h-137z" />
<glyph unicode="&#xdb;" horiz-adv-x="1214" d="M127 1266v94h471v-94q-111 -23 -111 -41v-846q0 -264 226 -264q98 0 145 64.5t47 199.5v846q0 18 -109 41v94h394v-94q-115 -23 -115 -41v-912q0 -338 -362 -338q-242 0 -358 86t-116 252v912q0 20 -112 41zM403 1483l199 221h151l201 -221h-133l-145 123l-142 -123h-131 z" />
<glyph unicode="&#xdc;" horiz-adv-x="1214" d="M127 1266v94h471v-94q-111 -23 -111 -41v-846q0 -264 226 -264q98 0 145 64.5t47 199.5v846q0 18 -109 41v94h394v-94q-115 -23 -115 -41v-912q0 -338 -362 -338q-242 0 -358 86t-116 252v912q0 20 -112 41zM438 1595q0 43 31 69t70 26q41 0 71.5 -26t30.5 -69 q0 -41 -31 -66.5t-69 -25.5q-41 0 -72 25.5t-31 66.5zM735 1595q0 43 31 69t69 26q39 0 70 -28t31 -67q0 -41 -30 -66.5t-71 -25.5q-39 0 -69.5 25.5t-30.5 66.5z" />
<glyph unicode="&#xdd;" horiz-adv-x="1187" d="M110 1266v94h471v-94q-111 -23 -110 -41v-307q0 -262 211 -265h4q104 0 153.5 67.5t49.5 197.5v307q0 18 -109 41v94h393v-94q-115 -23 -114 -41v-371q0 -135 -64.5 -217t-187.5 -117v-401q0 -18 108 -41v-94h-471v96q115 18 115 39v401q-334 70 -334 354v351 q0 18 -115 41zM512 1479l235 221h221l-319 -221h-137z" />
<glyph unicode="&#xde;" horiz-adv-x="952" d="M90 -18v96q109 18 115 37l-2 1110q0 18 -109 41v94h453v-94q-115 -18 -115 -41v-109q63 45 148 45q70 0 125 -26.5t95 -72.5t61.5 -109.5t21.5 -137.5v-254q0 -350 -328 -350q-31 0 -61.5 5t-59.5 17v-116q0 -18 109 -41v-94h-453zM432 346q94 -35 90 -35q160 0 160 369 q0 377 -182 377q-29 0 -68 -33v-678z" />
<glyph unicode="&#xdf;" horiz-adv-x="1136" d="M74 -16v110q109 6 108 35v870q0 193 99.5 284t304.5 91q211 0 313 -93t102 -292v-6q0 -207 -143 -307q197 -109 197 -320q0 -373 -469 -372h-72v139h72q223 2 223 231q0 252 -219 252h-76v139h76q86 0 132 58.5t46 175.5q0 129 -46 192.5t-132 63.5h-4q-156 0 -156 -205 v-1046h-356z" />
<glyph unicode="&#xe0;" horiz-adv-x="890" d="M108 1245h244l235 -221h-159zM133 268q4 293 289 293h8q100 -16 164 -31q-4 279 -162 281h-70q-25 0 -45 -143h-92l-24 241h217q389 0 389 -340v-428q0 -59 51 -59l4 -100h-119q-76 2 -100 104q-78 -109 -223 -109q-287 0 -287 291zM350 266q2 -186 102 -186 q143 0 144 209v149q-29 6 -51.5 10.5t-38.5 4.5q-78 0 -117 -38t-39 -139v-10z" />
<glyph unicode="&#xe1;" horiz-adv-x="890" d="M133 268q4 293 289 293h8q100 -16 164 -31q-4 279 -162 281h-70q-25 0 -45 -143h-92l-24 241h217q389 0 389 -340v-428q0 -59 51 -59l4 -100h-119q-76 2 -100 104q-78 -109 -223 -109q-287 0 -287 291zM242 1024l235 221h221l-319 -221h-137zM350 266q2 -186 102 -186 q143 0 144 209v149q-29 6 -51.5 10.5t-38.5 4.5q-78 0 -117 -38t-39 -139v-10z" />
<glyph unicode="&#xe2;" horiz-adv-x="890" d="M133 268q4 293 289 293h8q100 -16 164 -31q-4 279 -162 281h-70q-25 0 -45 -143h-92l-24 241h217q389 0 389 -340v-428q0 -59 51 -59l4 -100h-119q-76 2 -100 104q-78 -109 -223 -109q-287 0 -287 291zM172 1028l199 221h151l201 -221h-133l-145 123l-142 -123h-131z M350 266q2 -186 102 -186q143 0 144 209v149q-29 6 -51.5 10.5t-38.5 4.5q-78 0 -117 -38t-39 -139v-10z" />
<glyph unicode="&#xe3;" horiz-adv-x="890" d="M133 268q4 293 289 293h8q100 -16 164 -31q-4 279 -162 281h-70q-25 0 -45 -143h-92l-24 241h217q389 0 389 -340v-428q0 -59 51 -59l4 -100h-119q-76 2 -100 104q-78 -109 -223 -109q-287 0 -287 291zM201 1061v22q0 172 162 172h6q25 0 60.5 -12t72.5 -26.5t69 -27 t44 -12.5q51 2 53 78h86v-22q0 -172 -168 -175q-18 0 -46 7.5t-57.5 18.5t-58 22.5t-49.5 19.5v-2q-8 4 -14 6t-10 4t-12.5 3t-22.5 -1q-27 -2 -29 -75h-86zM350 266q2 -186 102 -186q143 0 144 209v149q-29 6 -51.5 10.5t-38.5 4.5q-78 0 -117 -38t-39 -139v-10z" />
<glyph unicode="&#xe4;" horiz-adv-x="890" d="M133 268q4 293 289 293h8q100 -16 164 -31q-4 279 -162 281h-70q-25 0 -45 -143h-92l-24 241h217q389 0 389 -340v-428q0 -59 51 -59l4 -100h-119q-76 2 -100 104q-78 -109 -223 -109q-287 0 -287 291zM223 1140q0 43 31 69t70 26q41 0 71.5 -26t30.5 -69 q0 -41 -31 -66.5t-69 -25.5q-41 0 -72 25.5t-31 66.5zM350 266q2 -186 102 -186q143 0 144 209v149q-29 6 -51.5 10.5t-38.5 4.5q-78 0 -117 -38t-39 -139v-10zM520 1140q0 43 31 69t69 26q39 0 70 -28t31 -67q0 -41 -30 -66.5t-71 -25.5q-39 0 -69.5 25.5t-30.5 66.5z" />
<glyph unicode="&#xe5;" horiz-adv-x="890" d="M133 268q4 293 289 293h8q100 -16 164 -31q-4 279 -162 281h-70q-25 0 -45 -143h-92l-24 241h217q389 0 389 -340v-428q0 -59 51 -59l4 -100h-119q-76 2 -100 104q-78 -109 -223 -109q-287 0 -287 291zM264 1124q0 33 17.5 59.5t45 45t64.5 28.5t76 10t76.5 -10 t65.5 -29.5t45 -46t17 -57.5q0 -33 -17 -59.5t-45 -45t-65.5 -28.5t-76.5 -10q-86 0 -144.5 40t-58.5 103zM350 266q2 -186 102 -186q143 0 144 209v149q-29 6 -51.5 10.5t-38.5 4.5q-78 0 -117 -38t-39 -139v-10zM422 1118q0 -27 13 -46.5t32 -19.5q20 0 33.5 19.5 t13.5 46.5q0 29 -13.5 48t-33.5 19q-18 0 -31.5 -19t-13.5 -48z" />
<glyph unicode="&#xe6;" horiz-adv-x="1230" d="M76 268q4 293 254 293h8q98 -14 164 -18q-4 266 -162 268h-35q-25 0 -45 -143h-92l-25 241h183q195 0 295 -88q41 45 96 69.5t127 27.5q305 0 305 -463h-430q2 -383 158 -383h2q100 2 188 149l84 -57q-86 -199 -293 -199q-158 0 -242 109q-133 -96 -288 -97 q-252 0 -252 291zM293 266q2 -186 88 -186q123 0 123 209v149q-29 6 -49.5 10.5t-36.5 4.5q-66 0 -95.5 -37t-29.5 -137v-13zM725 553h209q0 268 -103 272h-2q-98 0 -104 -272z" />
<glyph unicode="&#xe7;" horiz-adv-x="759" d="M133 453q0 229 102.5 342.5t319.5 113.5h176l-25 -270h-94q-20 174 -45 174h-43q-178 0 -178 -369q0 -340 207 -340h4q45 0 82 3.5t71 9.5v-94q-78 -25 -145.5 -39.5t-122.5 -16.5q-309 0 -309 486zM271 -207l164 268h139l-90 -141q55 0 92 -38t37 -85 q0 -66 -66.5 -102.5t-183.5 -36.5v61q121 41 121 78q0 20 -66 21q-20 0 -56 -5.5t-91 -19.5z" />
<glyph unicode="&#xe8;" horiz-adv-x="847" d="M135 426q0 242 86 367t272 125q326 0 326 -463h-471q2 -383 215 -383h4q82 2 170 149l84 -57q-88 -199 -326 -199h-8q-180 2 -266 120t-86 341zM172 1245h244l235 -221h-159zM354 553h250q-4 270 -123 272h-2q-119 0 -125 -272z" />
<glyph unicode="&#xe9;" horiz-adv-x="847" d="M135 426q0 242 86 367t272 125q326 0 326 -463h-471q2 -383 215 -383h4q82 2 170 149l84 -57q-88 -199 -326 -199h-8q-180 2 -266 120t-86 341zM269 1024l235 221h221l-319 -221h-137zM354 553h250q-4 270 -123 272h-2q-119 0 -125 -272z" />
<glyph unicode="&#xea;" horiz-adv-x="847" d="M135 426q0 242 86 367t272 125q326 0 326 -463h-471q2 -383 215 -383h4q82 2 170 149l84 -57q-88 -199 -326 -199h-8q-180 2 -266 120t-86 341zM217 1028l199 221h151l201 -221h-133l-145 123l-142 -123h-131zM354 553h250q-4 270 -123 272h-2q-119 0 -125 -272z" />
<glyph unicode="&#xeb;" horiz-adv-x="847" d="M135 426q0 242 86 367t272 125q326 0 326 -463h-471q2 -383 215 -383h4q82 2 170 149l84 -57q-88 -199 -326 -199h-8q-180 2 -266 120t-86 341zM229 1140q0 43 31 69t70 26q41 0 71.5 -26t30.5 -69q0 -41 -31 -66.5t-69 -25.5q-41 0 -72 25.5t-31 66.5zM354 553h250 q-4 270 -123 272h-2q-119 0 -125 -272zM526 1140q0 43 31 69t69 26q39 0 70 -28t31 -67q0 -41 -30 -66.5t-71 -25.5q-39 0 -69.5 25.5t-30.5 66.5z" />
<glyph unicode="&#xec;" horiz-adv-x="561" d="M-10 1245h244l235 -221h-159zM133 -16v96q115 18 115 39v655q0 18 -111 41v94h301v-790q0 -18 109 -41v-94h-414z" />
<glyph unicode="&#xed;" horiz-adv-x="561" d="M115 1024l235 221h221l-319 -221h-137zM133 -16v96q115 18 115 39v655q0 18 -111 41v94h301v-790q0 -18 109 -41v-94h-414z" />
<glyph unicode="&#xee;" horiz-adv-x="561" d="M49 1028l199 221h151l201 -221h-133l-145 123l-142 -123h-131zM133 -16v96q115 18 115 39v655q0 18 -111 41v94h301v-790q0 -18 109 -41v-94h-414z" />
<glyph unicode="&#xef;" horiz-adv-x="561" d="M63 1140q0 43 31 69t70 26q41 0 71.5 -26t30.5 -69q0 -41 -31 -66.5t-69 -25.5q-41 0 -72 25.5t-31 66.5zM133 -16v96q115 18 115 39v655q0 18 -111 41v94h301v-790q0 -18 109 -41v-94h-414zM360 1140q0 43 31 69t69 26q39 0 70 -28t31 -67q0 -41 -30 -66.5t-71 -25.5 q-39 0 -69.5 25.5t-30.5 66.5z" />
<glyph unicode="&#xf0;" horiz-adv-x="995" d="M88 303v238q0 76 31 140t81 111.5t116.5 74t140.5 26.5q123 0 207 -74v137q-4 262 -164 299v-165h-86v174h-29q-25 0 -45 -174h-92l-25 270h191v84h86v-88q211 -10 311 -92t100 -242v-645q0 -211 -99 -311.5t-316 -100.5q-199 0 -303.5 86t-104.5 252zM332 385 q0 -92 8 -153.5t27.5 -99.5t50.5 -53.5t78 -15.5q168 0 168 326v305q-88 82 -168 82q-162 0 -164 -364v-27z" />
<glyph unicode="&#xf1;" horiz-adv-x="1103" d="M139 -16v96q115 18 115 39v655q0 18 -109 41v94h305v-73q33 37 72 59.5t84 22.5q193 0 279 -81t86 -268v-450q0 -20 110 -41v-94h-436v96q115 18 115 39v450q0 117 -38 179.5t-116 62.5t-117 -58.5t-39 -162.5v-471q0 -18 109 -41v-94h-420zM297 1061v22q0 172 162 172h6 q25 0 60.5 -12t72.5 -26.5t69 -27t44 -12.5q51 2 53 78h86v-22q0 -172 -168 -175q-18 0 -46 7.5t-57.5 18.5t-58 22.5t-49.5 19.5v-2q-8 4 -14 6t-10 4t-12.5 3t-22.5 -1q-27 -2 -29 -75h-86z" />
<glyph unicode="&#xf2;" horiz-adv-x="907" d="M139 326v254q0 338 352 338q377 0 377 -338v-254q0 -350 -360 -351q-369 0 -369 351zM188 1245h244l235 -221h-159zM350 444q0 -371 158 -370q149 -1 149 370q-4 375 -164 375h-2q-141 0 -141 -375z" />
<glyph unicode="&#xf3;" horiz-adv-x="907" d="M139 326v254q0 338 352 338q377 0 377 -338v-254q0 -350 -360 -351q-369 0 -369 351zM269 1024l235 221h221l-319 -221h-137zM350 444q0 -371 158 -370q149 -1 149 370q-4 375 -164 375h-2q-141 0 -141 -375z" />
<glyph unicode="&#xf4;" horiz-adv-x="907" d="M139 326v254q0 338 352 338q377 0 377 -338v-254q0 -350 -360 -351q-369 0 -369 351zM225 1028l199 221h151l201 -221h-133l-145 123l-142 -123h-131zM350 444q0 -371 158 -370q149 -1 149 370q-4 375 -164 375h-2q-141 0 -141 -375z" />
<glyph unicode="&#xf5;" horiz-adv-x="907" d="M139 326v254q0 338 352 338q377 0 377 -338v-254q0 -350 -360 -351q-369 0 -369 351zM217 1061v22q0 172 162 172h6q25 0 60.5 -12t72.5 -26.5t69 -27t44 -12.5q51 2 53 78h86v-22q0 -172 -168 -175q-18 0 -46 7.5t-57.5 18.5t-58 22.5t-49.5 19.5v-2q-8 4 -14 6t-10 4 t-12.5 3t-22.5 -1q-27 -2 -29 -75h-86zM350 444q0 -371 158 -370q149 -1 149 370q-4 375 -164 375h-2q-141 0 -141 -375z" />
<glyph unicode="&#xf6;" horiz-adv-x="907" d="M139 326v254q0 338 352 338q377 0 377 -338v-254q0 -350 -360 -351q-369 0 -369 351zM246 1140q0 43 31 69t70 26q41 0 71.5 -26t30.5 -69q0 -41 -31 -66.5t-69 -25.5q-41 0 -72 25.5t-31 66.5zM350 444q0 -371 158 -370q149 -1 149 370q-4 375 -164 375h-2 q-141 0 -141 -375zM543 1140q0 43 31 69t69 26q39 0 70 -28t31 -67q0 -41 -30 -66.5t-71 -25.5q-39 0 -69.5 25.5t-30.5 66.5z" />
<glyph unicode="&#xf8;" horiz-adv-x="907" d="M98 -11l631 915h188l-614 -915h-205zM139 326v254q0 338 352 338q377 0 377 -338v-254q0 -350 -360 -351q-369 0 -369 351zM350 444q0 -371 158 -370q149 -1 149 370q-4 375 -164 375h-2q-141 0 -141 -375z" />
<glyph unicode="&#xf9;" horiz-adv-x="946" d="M121 815v94h301v-590q0 -117 24.5 -180t108.5 -63q78 0 107.5 63.5t29.5 179.5v457q0 16 -111 39v94h273v-768q0 -59 55 -59v-98h-121q-49 4 -71 71q-70 -76 -162 -80q-92 0 -154.5 20.5t-100.5 63.5t-53.5 108.5t-15.5 158.5v450q0 16 -110 39zM221 1245h244l235 -221 h-159z" />
<glyph unicode="&#xfa;" horiz-adv-x="946" d="M121 815v94h301v-590q0 -117 24.5 -180t108.5 -63q78 0 107.5 63.5t29.5 179.5v457q0 16 -111 39v94h273v-768q0 -59 55 -59v-98h-121q-49 4 -71 71q-70 -76 -162 -80q-92 0 -154.5 20.5t-100.5 63.5t-53.5 108.5t-15.5 158.5v450q0 16 -110 39zM330 1024l235 221h221 l-319 -221h-137z" />
<glyph unicode="&#xfb;" horiz-adv-x="946" d="M121 815v94h301v-590q0 -117 24.5 -180t108.5 -63q78 0 107.5 63.5t29.5 179.5v457q0 16 -111 39v94h273v-768q0 -59 55 -59v-98h-121q-49 4 -71 71q-70 -76 -162 -80q-92 0 -154.5 20.5t-100.5 63.5t-53.5 108.5t-15.5 158.5v450q0 16 -110 39zM254 1028l199 221h151 l201 -221h-133l-145 123l-142 -123h-131z" />
<glyph unicode="&#xfc;" horiz-adv-x="946" d="M121 815v94h301v-590q0 -117 24.5 -180t108.5 -63q78 0 107.5 63.5t29.5 179.5v457q0 16 -111 39v94h273v-768q0 -59 55 -59v-98h-121q-49 4 -71 71q-70 -76 -162 -80q-92 0 -154.5 20.5t-100.5 63.5t-53.5 108.5t-15.5 158.5v450q0 16 -110 39zM264 1140q0 43 31 69 t70 26q41 0 71.5 -26t30.5 -69q0 -41 -31 -66.5t-69 -25.5q-41 0 -72 25.5t-31 66.5zM561 1140q0 43 31 69t69 26q39 0 70 -28t31 -67q0 -41 -30 -66.5t-71 -25.5q-39 0 -69.5 25.5t-30.5 66.5z" />
<glyph unicode="&#xfd;" horiz-adv-x="1007" d="M125 819v90h442v-94q-90 -23 -102 -31l155 -469l152 471q-6 14 -100 29v94h342v-94q-109 -16 -123 -49h2l-258 -754v2q-25 -78 -72 -139t-108.5 -103t-132 -64.5t-140.5 -22.5v96q258 39 328 262l-266 723l2 -2q-12 25 -121 55zM398 1024l235 221h221l-319 -221h-137z " />
<glyph unicode="&#xfe;" horiz-adv-x="911" d="M82 -18v96q109 18 115 37l-2 1110q0 18 -109 41v94h420v-94q-115 -18 -115 -41v-109q63 45 148 45q70 0 125 -26.5t95 -72.5t61.5 -109.5t21.5 -137.5v-254q0 -350 -328 -350q-31 0 -61.5 5t-59.5 17v-116q0 -18 109 -41v-94h-420zM391 346q94 -35 90 -35q160 0 160 369 q0 377 -182 377q-29 0 -68 -33v-678z" />
<glyph unicode="&#xff;" horiz-adv-x="1007" d="M125 819v90h442v-94q-90 -23 -102 -31l155 -469l152 471q-6 14 -100 29v94h342v-94q-109 -16 -123 -49h2l-258 -754v2q-25 -78 -72 -139t-108.5 -103t-132 -64.5t-140.5 -22.5v96q258 39 328 262l-266 723l2 -2q-12 25 -121 55zM338 1140q0 43 31 69t70 26q41 0 71.5 -26 t30.5 -69q0 -41 -31 -66.5t-69 -25.5q-41 0 -72 25.5t-31 66.5zM635 1140q0 43 31 69t69 26q39 0 70 -28t31 -67q0 -41 -30 -66.5t-71 -25.5q-39 0 -69.5 25.5t-30.5 66.5z" />
<glyph unicode="&#x152;" horiz-adv-x="1355" d="M90 311v721q0 338 416 338q23 0 48.5 -3l59.5 -7h658l-25 -313h-94q-20 174 -43 174h-197v-480h267l-27 -139h-240v-479h197q23 0 43 174h94l25 -313h-660q-33 -4 -58.5 -7.5t-47.5 -3.5q-416 0 -416 338zM338 377q0 -264 168 -264t168 264v590q0 135 -40 199.5 t-128 64.5q-86 0 -127 -64.5t-41 -199.5v-590z" />
<glyph unicode="&#x153;" horiz-adv-x="1273" d="M113 326v254q0 338 311 338q147 0 244 -91q86 86 217 91q285 0 284 -463h-409q2 -383 176 -383h2q61 2 149 149l84 -57q-86 -199 -272 -199q-74 0 -134 24.5t-103 65.5q-86 -80 -222 -80q-328 0 -327 351zM324 444q-1 -370 116 -370q45 0 76 76.5t31 230.5v104 q0 174 -35 254t-86 80h-2q-100 0 -100 -375zM766 553h188q0 268 -92 272h-2q-88 0 -94 -272z" />
<glyph unicode="&#x178;" horiz-adv-x="1187" d="M110 1266v94h471v-94q-111 -23 -110 -41v-307q0 -262 211 -265h4q104 0 153.5 67.5t49.5 197.5v307q0 18 -109 41v94h393v-94q-115 -23 -114 -41v-371q0 -135 -64.5 -217t-187.5 -117v-401q0 -18 108 -41v-94h-471v96q115 18 115 39v401q-334 70 -334 354v351 q0 18 -115 41zM411 1595q0 43 31 69t70 26q41 0 71.5 -26t30.5 -69q0 -41 -31 -66.5t-69 -25.5q-41 0 -72 25.5t-31 66.5zM708 1595q0 43 31 69t69 26q39 0 70 -28t31 -67q0 -41 -30 -66.5t-71 -25.5q-39 0 -69.5 25.5t-30.5 66.5z" />
<glyph unicode="&#x2c6;" horiz-adv-x="649" d="M49 1483l199 221h151l201 -221h-133l-145 123l-142 -123h-131z" />
<glyph unicode="&#x2dc;" horiz-adv-x="737" d="M92 1516v22q0 172 162 172h6q25 0 60.5 -12t72.5 -26.5t69 -27t44 -12.5q51 2 53 78h86v-22q0 -172 -168 -175q-18 0 -46 7.5t-57.5 18.5t-58 22.5t-49.5 19.5v-2q-8 4 -14 6t-10 4t-12.5 3t-22.5 -1q-27 -2 -29 -75h-86z" />
<glyph unicode="&#x2000;" horiz-adv-x="861" />
<glyph unicode="&#x2001;" horiz-adv-x="1722" />
<glyph unicode="&#x2002;" horiz-adv-x="861" />
<glyph unicode="&#x2003;" horiz-adv-x="1722" />
<glyph unicode="&#x2004;" horiz-adv-x="574" />
<glyph unicode="&#x2005;" horiz-adv-x="430" />
<glyph unicode="&#x2006;" horiz-adv-x="287" />
<glyph unicode="&#x2007;" horiz-adv-x="287" />
<glyph unicode="&#x2008;" horiz-adv-x="215" />
<glyph unicode="&#x2009;" horiz-adv-x="344" />
<glyph unicode="&#x200a;" horiz-adv-x="95" />
<glyph unicode="&#x2010;" horiz-adv-x="522" d="M98 567v217h322v-217h-322z" />
<glyph unicode="&#x2011;" horiz-adv-x="522" d="M98 567v217h322v-217h-322z" />
<glyph unicode="&#x2012;" horiz-adv-x="522" d="M98 567v217h322v-217h-322z" />
<glyph unicode="&#x2013;" horiz-adv-x="851" d="M98 567v217h670v-217h-670z" />
<glyph unicode="&#x2014;" horiz-adv-x="1468" d="M139 567v217h1182v-217h-1182z" />
<glyph unicode="&#x2018;" horiz-adv-x="409" d="M68 1319q0 72 34.5 124t98.5 52q59 0 95 -48t36 -108q0 -123 -96 -163q6 -47 88 -99l-80 -63q-35 23 -67 57.5t-56.5 76.5t-38.5 86t-14 85z" />
<glyph unicode="&#x2019;" horiz-adv-x="407" d="M76 1339q0 59 34.5 107.5t94.5 48.5q66 0 99.5 -53t33.5 -123q0 -39 -14.5 -83t-39 -86t-56 -78t-64.5 -58l-80 63q80 49 86 99q-94 39 -94 163z" />
<glyph unicode="&#x201a;" horiz-adv-x="409" d="M127 68q0 59 35.5 107t95.5 48q63 0 98 -54t35 -122q0 -39 -14.5 -83t-39 -86t-56 -78t-66.5 -58l-80 63q80 49 86 101q-94 37 -94 162z" />
<glyph unicode="&#x201c;" horiz-adv-x="677" d="M82 1300q0 72 35 124.5t98 52.5q45 0 77 -29t46 -72q14 45 44 73t77 28q59 0 95 -48.5t36 -107.5q0 -123 -96 -164q6 -47 88 -98l-80 -64q-57 37 -105.5 105.5t-64.5 140.5q-23 -59 -82 -84q6 -47 88 -98l-80 -64q-35 23 -66.5 57.5t-56 76.5t-39 86t-14.5 85z" />
<glyph unicode="&#x201d;" horiz-adv-x="677" d="M86 1339q0 59 36 107.5t95 48.5q45 0 75 -27.5t46 -72.5q14 43 46 71.5t77 28.5q63 0 98 -52t35 -124q0 -41 -14.5 -85t-39 -86t-56 -77t-66.5 -57l-80 63q80 49 86 99q-57 25 -82 84q-16 -72 -63.5 -140.5t-104.5 -105.5l-80 63q80 49 86 99q-94 39 -94 163z" />
<glyph unicode="&#x201e;" horiz-adv-x="661" d="M98 70q0 59 36 107t95 48q45 0 75 -27.5t46 -72.5q14 43 46 71.5t77 28.5q63 0 98 -52t35 -124q0 -41 -14 -85t-39 -86t-56.5 -76.5t-66.5 -57.5l-80 63q80 49 86 99q-57 25 -82 84q-16 -72 -63 -140.5t-105 -105.5l-80 63q80 49 87 99q-94 39 -95 164z" />
<glyph unicode="&#x2022;" horiz-adv-x="839" d="M123 707q0 61 23.5 116.5t63.5 96.5t95 64.5t117 23.5q61 0 116.5 -23.5t96.5 -64.5t64.5 -96.5t23.5 -116.5t-23.5 -116.5t-64.5 -95.5t-96.5 -63.5t-116.5 -23.5t-116.5 23.5t-95.5 63.5t-63.5 95.5t-23.5 116.5z" />
<glyph unicode="&#x2026;" horiz-adv-x="2136" d="M80 68q0 59 35 107t94 48q61 0 96 -48t35 -107t-35 -107.5t-96 -48.5q-59 0 -94 48t-35 108zM936 68q0 59 35 107t94 48q61 0 96 -48t35 -107t-35 -107.5t-96 -48.5q-59 0 -94 48t-35 108zM1792 68q0 59 35 107t94 48q61 0 96 -48t35 -107t-35 -107.5t-96 -48.5 q-59 0 -94 48t-35 108z" />
<glyph unicode="&#x202f;" horiz-adv-x="344" />
<glyph unicode="&#x2039;" horiz-adv-x="610" d="M117 606v111l370 360v-188l-280 -232l280 -223v-184z" />
<glyph unicode="&#x203a;" horiz-adv-x="610" d="M115 246v188l278 232l-278 223v184l370 -356v-111z" />
<glyph unicode="&#x205f;" horiz-adv-x="430" />
<glyph unicode="&#x20ac;" horiz-adv-x="1011" d="M72 500v135h137v72h-137v133h137v182q0 338 467 338h336l-133 -313h-95q39 174 17 174h-129q-215 0 -215 -265v-116h334l-62 -133h-272v-72h239l-61 -135h-178v-123q0 -264 219 -264q147 4 266 92l41 -99q-63 -63 -160 -100q-94 -35 -192 -35q-117 0 -221.5 50.5 t-163.5 144.5q-37 63 -37 145v189h-137z" />
<glyph unicode="&#x2122;" horiz-adv-x="1196" d="M80 1174v188h450l-12 -188h-84q-6 57 -6 75v8h-45v-516q2 2 6 2q10 0 45 -6v-80h-266v82q16 2 27.5 3t17.5 1q4 0 6 -2q4 0 4 516h-47q2 -2 2 -14q0 -20 -6 -69h-92zM539 657v82q16 2 28.5 3t18.5 1q4 0 6 -2q4 0 4 533q0 2 -57 10v78h196l103 -397l100 397h209v-78 q-14 -2 -25.5 -4t-19.5 -4q-14 -2 -15 -535q2 2 11 2q8 0 20 -1t29 -3v-82h-270v33l-9 -33h-90l-16 62v-62h-223zM709 741q0 2 6 2q12 0 41 -6l-47 178v-174zM889 739q12 2 20.5 3t12.5 1t6 -2q2 0 2 164z" />
<glyph unicode="&#x25fc;" horiz-adv-x="911" d="M0 0v911h911v-911h-911z" />
</font>
</defs>
</svg>
